<svg width="64" height="64" viewBox="0 0 64 64" fill="none" xmlns="http://www.w3.org/2000/svg">
<rect width="64" height="64" fill="#453248"/>
<g clip-path="url(#clip0_1827_1997)">
<path fill-rule="evenodd" clip-rule="evenodd" d="M48.8847 28.6104C51.1144 29.8951 51.1273 33.1083 48.9079 34.4107L32.3805 44.1099H26.0129C24.8727 44.1099 23.9484 45.0343 23.9484 46.1744V46.3293V49.0584V50.7164C23.9484 51.8566 23.024 52.7809 21.8838 52.7809H17.4967C16.3565 52.7809 15.4322 51.8566 15.4322 50.7164V48.6379C15.4152 48.4994 15.4064 48.3575 15.4064 48.2125V46.8791L15.4322 46.8611V46.3293C15.4322 45.1891 16.3565 44.2648 17.4967 44.2648H19.5311C19.6353 44.2486 19.741 44.2404 19.8474 44.2404H21.8838C23.024 44.2404 23.9484 43.3161 23.9484 42.1759V41.9938V38.7499V37.8648C23.9484 36.7246 24.8727 35.8002 26.0129 35.8002H30.304C31.4409 35.7963 32.3613 34.8735 32.3613 33.7357V29.3486C32.3613 28.2084 31.4369 27.2841 30.2967 27.2841H25.9096C24.7695 27.2841 23.8451 28.2084 23.8451 29.3486V32.9313L23.7935 33.1484V33.5809C23.7935 34.7211 22.8692 35.6454 21.729 35.6454H21.5759H21.5687H19.1496H19.1423H17.4451C16.3049 35.6454 15.3806 34.7211 15.3806 33.5809V29.297C15.3806 29.1856 15.3894 29.0763 15.4064 28.9697V15.1274C15.4064 12.5462 18.1994 10.932 20.436 12.2205L48.8847 28.6104Z" fill="url(#paint0_radial_1827_1997)"/>
</g>
<defs>
<radialGradient id="paint0_radial_1827_1997" cx="0" cy="0" r="1" gradientUnits="userSpaceOnUse" gradientTransform="translate(32.9727 32.2742) scale(17.5921 20.5067)">
<stop stop-color="#B3BDFD"/>
<stop offset="0.5" stop-color="#EEB4CD"/>
<stop offset="1" stop-color="#E887FB"/>
</radialGradient>
<clipPath id="clip0_1827_1997">
<rect width="41.2903" height="41.2903" fill="white" transform="translate(11.8193 11.6128)"/>
</clipPath>
</defs>
</svg>
