<svg width="64" height="64" viewBox="0 0 64 64" fill="none" xmlns="http://www.w3.org/2000/svg">
<rect width="64" height="64" fill="#932CFF"/>
<path fill-rule="evenodd" clip-rule="evenodd" d="M50.5086 16.2616L37.1794 9.13137C34.3089 7.6189 29.6661 7.6189 26.8206 9.15538L13.4914 16.2616C10.4711 17.8701 8 21.9034 8 25.2164V38.7806C8 42.0937 10.4711 46.1269 13.4914 47.7354L26.8206 54.8656C29.6661 56.3781 34.3339 56.3781 37.1794 54.8656L50.5086 47.7354C53.5289 46.1269 56 42.0937 56 38.7806V25.2164C56 21.9034 53.5289 17.8701 50.5086 16.2616ZM30.2078 15.5088L30.2415 15.4908C30.24 15.4916 30.2828 15.4686 30.379 15.4344C30.4742 15.4005 30.6057 15.3613 30.7736 15.3246C31.1171 15.2495 31.5402 15.2007 32.0022 15.2C33.0148 15.1984 33.66 15.4193 33.8155 15.4973L44.995 21.4776L32.9063 27.5218C32.4123 27.7688 32.1626 27.8924 31.9772 27.9733L31.9625 27.9797L31.9477 27.9736C31.7608 27.8961 31.5089 27.7773 31.0104 27.5395L18.6766 21.6565L30.2078 15.5088ZM15.2 27.9753L15.2 38.7712C15.2001 38.7712 15.2002 38.7723 15.2004 38.7745C15.2026 38.7961 15.2157 38.923 15.2891 39.1517C15.3796 39.4339 15.5323 39.7768 15.7514 40.134C16.241 40.9327 16.7476 41.3121 16.8759 41.3805L16.8876 41.3867L30.1999 48.5079C30.2069 48.5115 30.2529 48.5341 30.3424 48.5654C30.4408 48.5998 30.576 48.6394 30.7482 48.6763C31.1002 48.7517 31.5316 48.8 32 48.8C32.4684 48.8 32.8998 48.7517 33.2518 48.6763C33.424 48.6394 33.5592 48.5998 33.6576 48.5654C33.7472 48.5341 33.7921 48.512 33.7992 48.5084L47.1241 41.3804C47.2524 41.3121 47.759 40.9327 48.2486 40.134C48.4677 39.7768 48.6204 39.4339 48.7109 39.1517C48.7843 38.923 48.7974 38.7962 48.7996 38.7745C48.7998 38.7723 48.7999 38.7712 48.8 38.7712V27.625L36.1262 33.9617L35.9329 34.0589C35.826 34.1128 35.7148 34.1688 35.5999 34.2256V39.2C35.5999 41.1882 33.9881 42.8 31.9999 42.8C30.0116 42.8 28.3999 41.1882 28.3999 39.2V34.2723C28.2987 34.2244 28.2006 34.1772 28.1057 34.1316L27.9107 34.0381L15.2 27.9753Z" fill="white"/>
</svg>
