<svg width="141" height="54" viewBox="0 0 141 54" fill="none" xmlns="http://www.w3.org/2000/svg">
<g clip-path="url(#clip0_401_5569)">
<path d="M17.5766 52.9431L24.4984 45.1716C24.5239 45.1432 24.5407 45.1081 24.5469 45.0704C24.5531 45.0327 24.5484 44.994 24.5333 44.9589C24.5183 44.9238 24.4935 44.8937 24.462 44.8722C24.4304 44.8507 24.3934 44.8386 24.3552 44.8375H16.7173C16.69 44.8379 16.6629 44.8321 16.6381 44.8205C16.6133 44.8089 16.5914 44.7919 16.5741 44.7706L10.1106 37.5147C10.0872 37.4811 10.0746 37.4411 10.0746 37.4001C10.0746 37.3592 10.0872 37.3192 10.1106 37.2856L20.8991 18.7542C20.9177 18.7241 20.9275 18.6894 20.9275 18.654C20.9275 18.6186 20.9177 18.5839 20.8991 18.5537L16.4023 10.83C16.3858 10.8001 16.3616 10.7752 16.3322 10.7579C16.3028 10.7406 16.2693 10.7314 16.2352 10.7314C16.2011 10.7314 16.1676 10.7406 16.1382 10.7579C16.1088 10.7752 16.0846 10.8001 16.0681 10.83L0.0381893 38.2976C0.0134002 38.3306 0 38.3708 0 38.4121C0 38.4535 0.0134002 38.4937 0.0381893 38.5267L12.9271 52.9431C12.9678 52.9838 13.0223 53.0077 13.0798 53.01H17.4238C17.4814 53.0077 17.5359 52.9838 17.5766 52.9431Z" fill="#6953F4"/>
<path d="M22.3209 0.0896666L17.8146 7.81344C17.796 7.84358 17.7861 7.87828 17.7861 7.91369C17.7861 7.9491 17.796 7.9838 17.8146 8.01394L22.4832 16.0337L34.8947 37.286C34.9158 37.3205 34.927 37.3601 34.927 37.4006C34.927 37.441 34.9158 37.4806 34.8947 37.5151L28.3166 44.8666L21.3375 52.7145C21.3107 52.7417 21.2928 52.7764 21.2859 52.814C21.2791 52.8516 21.2836 52.8904 21.2991 52.9253C21.3145 52.9603 21.34 52.9898 21.3724 53.0101C21.4048 53.0304 21.4425 53.0405 21.4807 53.0391H31.8968C31.924 53.0382 31.9507 53.0318 31.9753 53.0204C31.9999 53.0089 32.022 52.9925 32.0401 52.9722L44.9098 38.5271C44.9332 38.4935 44.9458 38.4535 44.9458 38.4126C44.9458 38.3716 44.9332 38.3316 44.9098 38.298L22.6551 0.0896666C22.6368 0.0620954 22.6119 0.0394786 22.5828 0.0238332C22.5536 0.00818778 22.5211 0 22.488 0C22.4549 0 22.4223 0.00818778 22.3932 0.0238332C22.364 0.0394786 22.3392 0.0620954 22.3209 0.0896666Z" fill="#6953F4"/>
<path d="M70.7839 17.6787H57.7656V50.2374H70.7839C79.7572 50.2374 86.5918 43.1675 86.5918 33.9581C86.5918 24.7486 79.7572 17.6787 70.7839 17.6787ZM70.7839 43.0745H65.2046V24.8416H70.7839C75.8982 24.8416 79.4317 28.3766 79.4317 33.9581C79.4317 39.5396 75.8982 43.0745 70.7839 43.0745Z" fill="#1A143D"/>
<path d="M98.2134 43.0745V37.307H109.837V30.2371H98.2134V24.8416H110.999V17.6787H90.7744V50.2374H111.232V43.0745H98.2134Z" fill="#1A143D"/>
<path d="M141 50.2374L131.283 33.5395L140.535 17.6787H132.074L127.052 26.2835L122.031 17.6787H113.569L122.821 33.5395L113.104 50.2374H121.566L127.052 40.8419L132.539 50.2374H141Z" fill="#1A143D"/>
</g>
<defs>
<clipPath id="clip0_401_5569">
<rect width="141" height="53.0392" fill="white"/>
</clipPath>
</defs>
</svg>
