<svg width="64" height="64" viewBox="0 0 64 64" fill="none" xmlns="http://www.w3.org/2000/svg">
<path d="M9.58886 41.7081L12.1836 38.815C12.1932 38.8045 12.1995 38.7914 12.2018 38.7773C12.2041 38.7633 12.2023 38.7489 12.1967 38.7359C12.1911 38.7228 12.1818 38.7116 12.1699 38.7036C12.1581 38.6956 12.1442 38.6911 12.1299 38.6907H9.26675C9.25649 38.6908 9.24634 38.6886 9.23704 38.6843C9.22774 38.68 9.21955 38.6737 9.21307 38.6658L6.79011 35.9646C6.78134 35.9521 6.77664 35.9372 6.77664 35.922C6.77664 35.9067 6.78134 35.8918 6.79011 35.8793L10.8343 28.9807C10.8413 28.9695 10.845 28.9566 10.845 28.9434C10.845 28.9302 10.8413 28.9173 10.8343 28.9061L9.14865 26.0308C9.14246 26.0197 9.13338 26.0104 9.12237 26.004C9.11135 25.9975 9.0988 25.9941 9.08602 25.9941C9.07323 25.9941 9.06068 25.9975 9.04966 26.004C9.03865 26.0104 9.02957 26.0197 9.02338 26.0308L3.01432 36.2561C3.00502 36.2684 3 36.2833 3 36.2987C3 36.3141 3.00502 36.3291 3.01432 36.3414L7.84591 41.7081C7.86117 41.7233 7.88161 41.7321 7.90317 41.733H9.5316C9.55315 41.7321 9.5736 41.7233 9.58886 41.7081Z" fill="#5339F4"/>
<path d="M11.3679 22.0334L9.67863 24.9087C9.67166 24.9199 9.66797 24.9328 9.66797 24.946C9.66797 24.9592 9.67166 24.9721 9.67863 24.9833L11.4287 27.9688L16.0814 35.8803C16.0893 35.8931 16.0935 35.9079 16.0935 35.923C16.0935 35.938 16.0893 35.9528 16.0814 35.9656L13.6155 38.7023L10.9993 41.6238C10.9892 41.6339 10.9825 41.6468 10.9799 41.6608C10.9773 41.6748 10.9791 41.6893 10.9848 41.7023C10.9906 41.7153 11.0002 41.7263 11.0123 41.7338C11.0245 41.7414 11.0386 41.7452 11.0529 41.7446H14.9576C14.9678 41.7443 14.9778 41.7419 14.987 41.7377C14.9962 41.7334 15.0045 41.7273 15.0113 41.7198L19.8357 36.3423C19.8445 36.3298 19.8492 36.3149 19.8492 36.2997C19.8492 36.2844 19.8445 36.2696 19.8357 36.257L11.4932 22.0334C11.4863 22.0231 11.477 22.0147 11.4661 22.0089C11.4551 22.003 11.4429 22 11.4305 22C11.4181 22 11.4059 22.003 11.395 22.0089C11.3841 22.0147 11.3748 22.0231 11.3679 22.0334Z" fill="#5339F4"/>
<path d="M30.9171 26.7051H25.3398V40.5571H30.9171C34.7614 40.5571 37.6895 37.5492 37.6895 33.6311C37.6895 29.7129 34.7614 26.7051 30.9171 26.7051ZM30.9171 37.5096H28.5268V29.7525H30.9171C33.1082 29.7525 34.622 31.2564 34.622 33.6311C34.622 36.0057 33.1082 37.5096 30.9171 37.5096Z" fill="#1A143D"/>
<path d="M42.6684 37.5096V35.0559H47.6481V32.048H42.6684V29.7525H48.146V26.7051H39.4814V40.5571H48.2456V37.5096H42.6684Z" fill="#1A143D"/>
<path d="M60.9991 40.5571L56.8361 33.453L60.7999 26.7051H57.1747L55.0235 30.366L52.8722 26.7051H49.247L53.2109 33.453L49.0478 40.5571H52.673L55.0235 36.5598L57.3739 40.5571H60.9991Z" fill="#1A143D"/>
</svg>
