<?xml version="1.0" encoding="utf-8"?>
<!-- Generator: Adobe Illustrator 26.4.1, SVG Export Plug-In . SVG Version: 6.00 Build 0)  -->
<svg version="1.1" id="Layer_1" xmlns="http://www.w3.org/2000/svg" xmlns:xlink="http://www.w3.org/1999/xlink" x="0px" y="0px"
	 viewBox="0 0 50 50" style="enable-background:new 0 0 50 50;" xml:space="preserve">
<style type="text/css">
	.st0{fill:#4070F4;}
	.st1{fill:#F7F9FB;}
	.st2{fill:#254898;}
</style>
<rect class="st0" width="50" height="50"/>
<g>
	<path class="st1" d="M20.6,48.5l6.2-6.9c0.1-0.1,0-0.3-0.1-0.3h-6.8c-0.1,0-0.1,0-0.1-0.1L14,34.8c0-0.1-0.1-0.1,0-0.2l9.6-16.5
		c0-0.1,0-0.1,0-0.2l-4-6.9c-0.1-0.1-0.2-0.1-0.3,0L5,35.5c0,0.1,0,0.1,0,0.2l11.4,12.8c0,0,0.1,0.1,0.1,0.1h3.9
		C20.5,48.6,20.6,48.6,20.6,48.5"/>
	<path class="st1" d="M24.8,1.5l-4,6.9c0,0.1,0,0.1,0,0.2l4.2,7.1l11,18.9c0,0.1,0,0.1,0,0.2l-5.8,6.5h0l-6.2,7
		c-0.1,0.1,0,0.3,0.1,0.3h9.3c0,0,0.1,0,0.1-0.1l11.4-12.8c0.1-0.1,0.1-0.1,0-0.2l-19.8-34C25.1,1.4,24.9,1.4,24.8,1.5"/>
</g>
</svg>
