<?xml version="1.0" encoding="UTF-8"?><svg id="Layer_1" xmlns="http://www.w3.org/2000/svg" viewBox="0 0 64 64"><defs><style>.cls-1{fill:#f7f9fb;}.cls-2{fill:#4070f4;}</style></defs><rect class="cls-2" width="64" height="64"/><g><path class="cls-1" d="m26.9,59.43l7.18-8.07c.12-.13.02-.34-.15-.34h-7.9c-.06,0-.11-.03-.15-.07l-6.71-7.53c-.06-.07-.07-.16-.02-.24l11.2-19.23c.04-.06.04-.14,0-.2l-4.67-8.02c-.08-.13-.27-.13-.35,0l-16.6,28.5c-.04.08-.03.17.02.24l13.32,14.96s.09.07.15.07h4.51c.06,0,.11-.02.15-.07"/><path class="cls-1" d="m31.82,4.6l-4.67,8.02c-.04.06-.04.14,0,.2l4.84,8.32,12.84,22.05c.04.08.04.17-.02.24l-6.77,7.6h0l-7.24,8.14c-.12.13-.02.34.15.34h10.8c.06,0,.11-.02.15-.07l13.32-14.96c.06-.07.07-.16.02-.24L32.18,4.6c-.08-.13-.27-.13-.35,0"/></g></svg>