<?xml version="1.0" encoding="utf-8"?>
<!-- Generator: Adobe Illustrator 26.4.1, SVG Export Plug-In . SVG Version: 6.00 Build 0)  -->
<svg version="1.1" id="Layer_1" xmlns="http://www.w3.org/2000/svg" xmlns:xlink="http://www.w3.org/1999/xlink" x="0px" y="0px"
	 viewBox="0 0 40 40" style="enable-background:new 0 0 40 40;" xml:space="preserve">
<style type="text/css">
	.st0{fill:#4070F4;}
	.st1{fill:#F7F9FB;}
	.st2{fill:#254898;}
</style>
<rect x="0" class="st0" width="40" height="40"/>
<g>
	<path class="st1" d="M16.5,38.9l4.9-5.5c0.1-0.1,0-0.2-0.1-0.2h-5.4c0,0-0.1,0-0.1,0l-4.6-5.2c0,0,0-0.1,0-0.2l7.7-13.2
		c0,0,0-0.1,0-0.1l-3.2-5.5c-0.1-0.1-0.2-0.1-0.2,0L4,28.4c0,0.1,0,0.1,0,0.2l9.2,10.3c0,0,0.1,0,0.1,0h3.1
		C16.4,38.9,16.5,38.9,16.5,38.9"/>
	<path class="st1" d="M19.9,1.2l-3.2,5.5c0,0,0,0.1,0,0.1l3.3,5.7l8.8,15.2c0,0.1,0,0.1,0,0.2l-4.7,5.2h0l-5,5.6
		c-0.1,0.1,0,0.2,0.1,0.2h7.4c0,0,0.1,0,0.1,0L36,28.6c0,0,0-0.1,0-0.2L20.1,1.2C20.1,1.1,19.9,1.1,19.9,1.2"/>
</g>
</svg>
